<?xml version="1.0" encoding="utf-8"?>
<!-- Generator: Adobe Illustrator 26.5.0, SVG Export Plug-In . SVG Version: 6.00 Build 0)  -->
<svg version="1.1" id="Layer_1" xmlns="http://www.w3.org/2000/svg" xmlns:xlink="http://www.w3.org/1999/xlink" x="0px" y="0px"
	 viewBox="0 0 208.8 209" style="enable-background:new 0 0 208.8 209;" xml:space="preserve">
<style type="text/css">
	.st0{clip-path:url(#SVGID_00000075856054025909095230000002613068185265436548_);}
</style>
<g>
	<g>
		<g>
			<defs>
				<rect id="SVGID_1_" width="348" height="209"/>
			</defs>
			<clipPath id="SVGID_00000140016336632886755740000003446622708028891534_">
				<use xlink:href="#SVGID_1_"  style="overflow:visible;"/>
			</clipPath>
			<g style="clip-path:url(#SVGID_00000140016336632886755740000003446622708028891534_);">
				<path d="M208.8,209H-0.4V0h209.2V209z M69,1H0.6v68.3H69V1z M0.6,128.5l58.2-58.1H0.6V128.5z M69,139.7H0.6V208H69V139.7z
					 M69,80.5l-58.2,58.1H69V80.5z M70,59.2L128.2,1H70V59.2L70,59.2z M138.4,70.4H70v68.3h68.4V70.4L138.4,70.4z M138.4,139.7H70
					V208h68.4V139.7z M138.4,11.2L94,55.5h44.4V11.2L138.4,11.2z M207.8,139.7h-68.4V208h68.4L207.8,139.7L207.8,139.7z M207.8,1
					h-54.5v68.3h54.5V1L207.8,1z M207.8,70.4h-54.5v68.3h54.5V70.4L207.8,70.4z"/>
			</g>
		</g>
	</g>
</g>
</svg>
